<svg xmlns="http://www.w3.org/2000/svg" viewBox="0 0 1068.74 717"><defs><style>.cls-1{fill:#e2e2e2;}.cls-2{opacity:0.3;}.cls-3{fill:#330915;}.cls-4{fill:#cc2453;}.cls-5{fill:#66122a;}</style></defs><title>tf_lockup-vert-pink</title><g id="Layer_2" data-name="Layer 2"><g id="Layer_1-2" data-name="Layer 1"><circle class="cls-1" cx="534.54" cy="210.94" r="210.94"/><g class="cls-2"><rect class="cls-3" x="487.98" y="47.75" width="93.1" height="344.51" rx="46.55" ry="46.55"/><path class="cls-3" d="M488.85,185.08H646.17a46.69,46.69,0,0,1,46.55,46.55h0a46.69,46.69,0,0,1-46.55,46.55H488.85Z"/><rect class="cls-3" x="376.35" y="95.23" width="316.38" height="93.1" rx="46.55" ry="46.55"/></g><path class="cls-4" d="M534.54,379.79a43.19,43.19,0,0,1-43.15-43.15V85.23a43.15,43.15,0,0,1,86.29,0V336.64A43.19,43.19,0,0,1,534.54,379.79Z"/><path class="cls-5" d="M534.54,45.49a39.79,39.79,0,0,1,39.74,39.74V336.64a39.74,39.74,0,0,1-79.48,0V85.23a39.79,39.79,0,0,1,39.74-39.74m0-6.81A46.69,46.69,0,0,0,488,85.23V336.64a46.55,46.55,0,0,0,93.1,0V85.23a46.69,46.69,0,0,0-46.55-46.55Z"/><path class="cls-4" d="M492.26,265.71V179.42H646.17a43.15,43.15,0,0,1,0,86.29Z"/><path class="cls-5" d="M646.17,182.82a39.74,39.74,0,0,1,0,79.48H495.66V182.82H646.17m0-6.81H488.85v93.1H646.17a46.55,46.55,0,0,0,0-93.1Z"/><path class="cls-4" d="M422.9,175.86a43.15,43.15,0,1,1,0-86.29H646.17a43.15,43.15,0,1,1,0,86.29Z"/><path class="cls-5" d="M646.17,93a39.74,39.74,0,1,1,0,79.48H422.9a39.74,39.74,0,1,1,0-79.48H646.17m0-6.81H422.9a46.55,46.55,0,1,0,0,93.1H646.17a46.55,46.55,0,1,0,0-93.1Z"/><path class="cls-1" d="M47.25,532v30.91h30v23.19H47v47c0,10.38,5.74,15.46,14.13,15.46a30.76,30.76,0,0,0,13-3.31l7.51,23a60.15,60.15,0,0,1-22.3,4.64c-23.63.88-39.09-12.58-39.09-39.75v-47H0V562.87H20.31v-28Z"/><path class="cls-1" d="M183.71,562.65h25.84V671.51H184.16l-1.32-15.9c-6.18,12.81-23.19,19-35.33,19.21C115.26,675,91.42,655.17,91.42,617c0-37.54,25-57.19,56.75-57,14.57,0,28.48,6.85,34.67,17.67ZM118.35,617c0,20.76,14.35,33.12,32.24,33.12,42.4,0,42.4-66,0-66C132.71,584.07,118.35,596.21,118.35,617Z"/><path class="cls-1" d="M337.4,562.65,270.94,717H241.35l20.31-47.25-43.5-107.09h31.36l16.56,47,10.38,30.69,11.26-30,19.87-47.7Z"/><path class="cls-1" d="M378.25,517.16V671.51H351.54V517.16Z"/><path class="cls-1" d="M510.08,617.19c0,31.36-21.42,56.75-56.75,56.75s-56.53-25.39-56.53-56.75c0-31.13,21.64-56.75,56.31-56.75S510.08,586.06,510.08,617.19Zm-86.34,0c0,16.56,9.94,32,29.59,32s29.59-15.46,29.59-32c0-16.34-11.48-32.24-29.59-32.24C433.9,585,423.74,600.85,423.74,617.19Z"/><path class="cls-1" d="M553.58,562.65l2,12.59c8.39-13.47,19.65-15.46,30.69-15.46,11.26,0,22.08,4.42,28,10.38l-12.15,23.41c-5.52-4.64-10.6-7.07-19.43-7.07-14.13,0-27.16,7.51-27.16,27.6v57.41H528.63V562.65Z"/><path class="cls-4" d="M651,671.51V587.82H630.65V564.2H651v-7.29c0-29.15,19.65-42.62,41.51-42.62a52.5,52.5,0,0,1,28.26,8.83l-9.94,20.09c-5.74-3.75-11-5.74-16.56-5.74-9.27,0-16.34,6.18-16.34,19.43v7.29h32v23.63h-32v83.69Z"/><path class="cls-4" d="M754.08,626.69c1.77,13.47,13.47,23.19,32.46,23.19,9.94,0,23-3.75,29.15-10.16l17.22,17c-11.48,11.92-30.25,17.67-46.81,17.67-37.54,0-59.84-23.19-59.84-58.07,0-33.12,22.52-57,57.85-57,36.43,0,59.18,22.52,55,67.35Zm59.18-22.3c-1.77-14.13-12.81-21.2-28.26-21.2-14.57,0-26.5,7.07-30.47,21.2Z"/><path class="cls-4" d="M972.91,517.16V671.51H947.74l-1.77-15c-8.39,13-21.86,17.44-35.11,17.44-32,0-56.09-21.2-56.09-57,0-37.54,23.63-57,55.42-57,11.48,0,29.37,6.18,35.77,17.44V517.16ZM881.72,617c0,19,13.69,32,30.91,32,17,0,31.58-12.36,31.58-32,0-19-14.57-31.8-31.58-31.8C895.4,585.18,881.72,597.32,881.72,617Z"/><path class="cls-4" d="M1034.3,532v30.91h30v23.19h-30.25v47c0,10.38,5.74,15.46,14.13,15.46a30.76,30.76,0,0,0,13-3.31l7.51,23a60.15,60.15,0,0,1-22.3,4.64c-23.63.88-39.09-12.58-39.09-39.75v-47H987V562.87h20.31v-28Z"/></g></g></svg>