<svg xmlns="http://www.w3.org/2000/svg" viewBox="0 0 421.87 421.87"><defs><style>.cls-1{fill:#e2e2e2;}.cls-2{opacity:0.3;}.cls-3{fill:#153140;}.cls-4{fill:#40afff;}</style></defs><title>tf_logo-blue</title><g id="Layer_2" data-name="Layer 2"><g id="Layer_1-2" data-name="Layer 1"><circle class="cls-1" cx="210.94" cy="210.94" r="210.94"/><g class="cls-2"><rect class="cls-3" x="164.39" y="47.75" width="93.1" height="344.51" rx="46.55" ry="46.55"/><path class="cls-3" d="M165.25,185.08H322.57a46.69,46.69,0,0,1,46.55,46.55h0a46.69,46.69,0,0,1-46.55,46.55H165.25Z"/><rect class="cls-3" x="52.75" y="95.23" width="316.38" height="93.1" rx="46.55" ry="46.55"/></g><path class="cls-4" d="M210.94,379.79a43.19,43.19,0,0,1-43.15-43.15V85.23a43.15,43.15,0,0,1,86.29,0V336.64A43.19,43.19,0,0,1,210.94,379.79Z"/><path class="cls-3" d="M210.94,45.49a39.79,39.79,0,0,1,39.74,39.74V336.64a39.74,39.74,0,0,1-79.48,0V85.23a39.79,39.79,0,0,1,39.74-39.74m0-6.81a46.69,46.69,0,0,0-46.55,46.55V336.64a46.55,46.55,0,0,0,93.1,0V85.23a46.69,46.69,0,0,0-46.55-46.55Z"/><path class="cls-4" d="M168.66,265.71V179.42H322.57a43.15,43.15,0,0,1,0,86.29Z"/><path class="cls-3" d="M322.57,182.82a39.74,39.74,0,0,1,0,79.48H172.06V182.82H322.57m0-6.81H165.25v93.1H322.57a46.55,46.55,0,0,0,0-93.1Z"/><path class="cls-4" d="M99.3,175.86a43.15,43.15,0,1,1,0-86.29H322.57a43.15,43.15,0,1,1,0,86.29Z"/><path class="cls-3" d="M322.57,93a39.74,39.74,0,1,1,0,79.48H99.3A39.74,39.74,0,1,1,99.3,93H322.57m0-6.81H99.3a46.55,46.55,0,1,0,0,93.1H322.57a46.55,46.55,0,1,0,0-93.1Z"/></g></g></svg>