<svg xmlns="http://www.w3.org/2000/svg" viewBox="0 0 1068.74 202.71"><defs><style>.cls-1{fill:#e2e2e2;}.cls-2{fill:#4fd0ab;}</style></defs><title>tf_text-green</title><g id="Layer_2" data-name="Layer 2"><g id="Layer_1-2" data-name="Layer 1"><path class="cls-1" d="M47.25,17.66V48.58h30V71.76H47v47c0,10.38,5.74,15.46,14.13,15.46a30.76,30.76,0,0,0,13-3.31l7.51,23a60.15,60.15,0,0,1-22.3,4.64c-23.63.88-39.09-12.58-39.09-39.75v-47H0V48.58H20.31v-28Z"/><path class="cls-1" d="M183.71,48.36h25.84V157.22H184.16l-1.32-15.9c-6.18,12.81-23.19,19-35.33,19.21-32.24.22-56.09-19.65-56.09-57.85,0-37.54,25-57.19,56.75-57,14.57,0,28.48,6.85,34.67,17.67Zm-65.36,54.32c0,20.76,14.35,33.12,32.24,33.12,42.4,0,42.4-66,0-66C132.71,69.78,118.35,81.92,118.35,102.68Z"/><path class="cls-1" d="M337.4,48.36,270.94,202.71H241.35l20.31-47.25L218.17,48.36h31.36l16.56,47,10.38,30.69,11.26-30,19.87-47.7Z"/><path class="cls-1" d="M378.25,2.87V157.22H351.54V2.87Z"/><path class="cls-1" d="M510.08,102.9c0,31.36-21.42,56.75-56.75,56.75S396.8,134.25,396.8,102.9c0-31.13,21.64-56.75,56.31-56.75S510.08,71.76,510.08,102.9Zm-86.34,0c0,16.56,9.94,32,29.59,32s29.59-15.46,29.59-32c0-16.34-11.48-32.24-29.59-32.24C433.9,70.66,423.74,86.56,423.74,102.9Z"/><path class="cls-1" d="M553.58,48.36l2,12.59c8.39-13.47,19.65-15.46,30.69-15.46,11.26,0,22.08,4.42,28,10.38L602.16,79.27c-5.52-4.64-10.6-7.07-19.43-7.07-14.13,0-27.16,7.51-27.16,27.6v57.41H528.63V48.36Z"/><path class="cls-2" d="M651,157.22V73.53H630.65V49.9H651V42.62C651,13.47,670.61,0,692.48,0a52.5,52.5,0,0,1,28.26,8.83L710.8,28.93c-5.74-3.75-11-5.74-16.56-5.74-9.27,0-16.34,6.18-16.34,19.43V49.9h32V73.53h-32v83.69Z"/><path class="cls-2" d="M754.08,112.39c1.77,13.47,13.47,23.19,32.46,23.19,9.94,0,23-3.75,29.15-10.16l17.22,17c-11.48,11.92-30.25,17.67-46.81,17.67-37.54,0-59.84-23.19-59.84-58.07,0-33.12,22.52-57,57.85-57,36.43,0,59.18,22.52,55,67.35Zm59.18-22.3C811.49,76,800.45,68.89,785,68.89c-14.57,0-26.5,7.07-30.47,21.2Z"/><path class="cls-2" d="M972.91,2.87V157.22H947.74l-1.77-15c-8.39,13-21.86,17.44-35.11,17.44-32,0-56.09-21.2-56.09-57,0-37.54,23.63-57,55.42-57,11.48,0,29.37,6.18,35.77,17.44V2.87Zm-91.19,99.81c0,19,13.69,32,30.91,32,17,0,31.58-12.36,31.58-32,0-19-14.57-31.8-31.58-31.8C895.4,70.88,881.72,83,881.72,102.68Z"/><path class="cls-2" d="M1034.3,17.66V48.58h30V71.76h-30.25v47c0,10.38,5.74,15.46,14.13,15.46a30.76,30.76,0,0,0,13-3.31l7.51,23a60.15,60.15,0,0,1-22.3,4.64c-23.63.88-39.09-12.58-39.09-39.75v-47H987V48.58h20.31v-28Z"/></g></g></svg>